<svg width="24" height="24" viewBox="0 0 24 24" fill="none" xmlns="http://www.w3.org/2000/svg">
<path d="M12.3096 23.1309C18.5508 23.1309 23.6855 17.9961 23.6855 11.7549C23.6855 5.50293 18.5508 0.368164 12.2988 0.368164C6.04688 0.368164 0.922852 5.50293 0.922852 11.7549C0.922852 17.9961 6.05762 23.1309 12.3096 23.1309ZM11.1172 17.1582C10.6338 17.1582 10.2363 16.9326 9.90332 16.5137L7.38965 13.5273C7.13184 13.2266 7.03516 12.9473 7.03516 12.625C7.03516 11.9482 7.58301 11.4111 8.25977 11.4111C8.64648 11.4111 8.94727 11.5723 9.2373 11.916L11.0957 14.1719L15.2529 7.57617C15.543 7.11426 15.8975 6.87793 16.3271 6.87793C16.9932 6.87793 17.5947 7.37207 17.5947 8.04883C17.5947 8.31738 17.4873 8.61816 17.2939 8.89746L12.2988 16.4922C12.0195 16.9111 11.5898 17.1582 11.1172 17.1582Z" fill="white"/>
</svg>
