<svg width="14" height="13" viewBox="0 0 14 13" fill="none" xmlns="http://www.w3.org/2000/svg">
<path d="M2.64362 12.5H11.3564C12.7582 12.5 13.5 11.7448 13.5 10.3488V2.6449C13.5 1.24881 12.7582 0.5 11.3564 0.5H2.64362C1.24807 0.5 0.5 1.24881 0.5 2.6449V10.3488C0.5 11.7512 1.24807 12.5 2.64362 12.5ZM2.70648 11.0468C2.20358 11.0468 1.93956 10.793 1.93956 10.2663V4.52961C1.93956 3.99656 2.20358 3.74907 2.70648 3.74907H11.2935C11.7901 3.74907 12.0604 3.99656 12.0604 4.52961V10.2663C12.0604 10.793 11.7901 11.0468 11.2935 11.0468H2.70648ZM5.80561 5.86859H6.17021C6.4028 5.86859 6.47824 5.79878 6.47824 5.57033V5.19593C6.47824 4.96748 6.4028 4.89767 6.17021 4.89767H5.80561C5.57302 4.89767 5.49758 4.96748 5.49758 5.19593V5.57033C5.49758 5.79878 5.57302 5.86859 5.80561 5.86859ZM7.82979 5.86859H8.20068C8.42698 5.86859 8.50242 5.79878 8.50242 5.57033V5.19593C8.50242 4.96748 8.42698 4.89767 8.20068 4.89767H7.82979C7.60348 4.89767 7.52176 4.96748 7.52176 5.19593V5.57033C7.52176 5.79878 7.60348 5.86859 7.82979 5.86859ZM9.85397 5.86859H10.2249C10.4512 5.86859 10.5266 5.79878 10.5266 5.57033V5.19593C10.5266 4.96748 10.4512 4.89767 10.2249 4.89767H9.85397C9.62766 4.89767 9.55222 4.96748 9.55222 5.19593V5.57033C9.55222 5.79878 9.62766 5.86859 9.85397 5.86859ZM3.77515 7.88022H4.14603C4.37234 7.88022 4.45406 7.81042 4.45406 7.58197V7.20756C4.45406 6.97911 4.37234 6.90931 4.14603 6.90931H3.77515C3.54884 6.90931 3.4734 6.97911 3.4734 7.20756V7.58197C3.4734 7.81042 3.54884 7.88022 3.77515 7.88022ZM5.80561 7.88022H6.17021C6.4028 7.88022 6.47824 7.81042 6.47824 7.58197V7.20756C6.47824 6.97911 6.4028 6.90931 6.17021 6.90931H5.80561C5.57302 6.90931 5.49758 6.97911 5.49758 7.20756V7.58197C5.49758 7.81042 5.57302 7.88022 5.80561 7.88022ZM7.82979 7.88022H8.20068C8.42698 7.88022 8.50242 7.81042 8.50242 7.58197V7.20756C8.50242 6.97911 8.42698 6.90931 8.20068 6.90931H7.82979C7.60348 6.90931 7.52176 6.97911 7.52176 7.20756V7.58197C7.52176 7.81042 7.60348 7.88022 7.82979 7.88022ZM9.85397 7.88022H10.2249C10.4512 7.88022 10.5266 7.81042 10.5266 7.58197V7.20756C10.5266 6.97911 10.4512 6.90931 10.2249 6.90931H9.85397C9.62766 6.90931 9.55222 6.97911 9.55222 7.20756V7.58197C9.55222 7.81042 9.62766 7.88022 9.85397 7.88022ZM3.77515 9.8982H4.14603C4.37234 9.8982 4.45406 9.82205 4.45406 9.5936V9.22554C4.45406 8.99709 4.37234 8.92094 4.14603 8.92094H3.77515C3.54884 8.92094 3.4734 8.99709 3.4734 9.22554V9.5936C3.4734 9.82205 3.54884 9.8982 3.77515 9.8982ZM5.80561 9.8982H6.17021C6.4028 9.8982 6.47824 9.82205 6.47824 9.5936V9.22554C6.47824 8.99709 6.4028 8.92094 6.17021 8.92094H5.80561C5.57302 8.92094 5.49758 8.99709 5.49758 9.22554V9.5936C5.49758 9.82205 5.57302 9.8982 5.80561 9.8982ZM7.82979 9.8982H8.20068C8.42698 9.8982 8.50242 9.82205 8.50242 9.5936V9.22554C8.50242 8.99709 8.42698 8.92094 8.20068 8.92094H7.82979C7.60348 8.92094 7.52176 8.99709 7.52176 9.22554V9.5936C7.52176 9.82205 7.60348 9.8982 7.82979 9.8982Z" fill="black" fill-opacity="0.3"/>
</svg>
